<?xml version="1.0" standalone="no"?><!DOCTYPE svg PUBLIC "-//W3C//DTD SVG 1.1//EN" "http://www.w3.org/Graphics/SVG/1.1/DTD/svg11.dtd"><svg t="1504750068197" class="icon" style="" viewBox="0 0 1024 1024" version="1.1" xmlns="http://www.w3.org/2000/svg" p-id="3494" xmlns:xlink="http://www.w3.org/1999/xlink" width="200" height="200"><defs><style type="text/css"></style></defs><path d="M601.878052 118.929738a59.445693 59.445693 0 1 0-59.21558-59.484045A59.407341 59.407341 0 0 0 602.031461 118.891386z m149.573034 309.309363v119.15985h-109.073258a388.544719 388.544719 0 0 0-79.465468-138.450936v-28.994157l14.266966-81.229663s17.373483-20.28824 28.955805-2.876405c0 0-2.914757 24.660375 46.329288 50.739776l57.911611 21.745618s31.870562 11.505618 37.661723-5.791162c0 0 11.505618-26.079401-5.791161-31.908913l-52.12045-29.03251s-60.711311-40.576479-57.796554-92.581872c0 0-10.470112-57.52809-62.628914-75.054982 0 0-26.079401-20.28824-57.91161-8.705917L374.565393 188.538727s-19.904719 11.505618-19.904719 26.117752V351.304869s-3.605094 26.117753 14.113558 26.117753c0 0 30.413184-10.163296 30.413184-18.869214l1.572434-103.320449s3.643446-8.360749 26.079401-23.011236l23.011236-17.757004s26.079401-17.411835 20.249888 5.791161c0 0-46.022472 68.15161-46.022472 110.22382v104.394307L328.926442 653.902622a65.773783 65.773783 0 0 0-5.906217 12.502771h-50.624719v119.15985H32.848539V1024h239.546967v-119.15985h239.585318v-119.121498h239.546966V666.558801h239.585319v-238.3197z m-239.470262 119.15985v119.15985H403.751311l72.178577-138.642696s18.830861-47.518202 34.746966-31.525393l45.677303 51.046591z" p-id="3495" fill="#302929"></path></svg>