<?xml version="1.0" standalone="no"?><!DOCTYPE svg PUBLIC "-//W3C//DTD SVG 1.1//EN" "http://www.w3.org/Graphics/SVG/1.1/DTD/svg11.dtd"><svg t="1504747075280" class="icon" style="" viewBox="0 0 1024 1024" version="1.1" xmlns="http://www.w3.org/2000/svg" p-id="3690" xmlns:xlink="http://www.w3.org/1999/xlink" width="200" height="200"><defs><style type="text/css"></style></defs><path d="M945.320033 77.498048c-6.633071-5.526877-14.372336-7.738241-22.110577-4.420682l-837.985446 322.813196c-8.843412 3.315512-14.372336 13.266142-15.477506 24.320919-1.105171 11.056823 4.421706 22.109554 13.266141 26.533306L377.082194 623.62838l-4.423752 174.673251c0 11.0558 4.423753 21.004383 12.161994 25.427113 7.739265 5.526877 16.5837 4.422729 24.320918-1.105171l132.662439-86.230943c9.950629-8.842389 13.266142-26.53126 5.526877-38.692231-7.738241-12.163017-22.10853-15.477506-32.05916-6.635117l-96.18055 53.064566 3.314489-137.085168c0-11.0558-4.421706-21.005406-13.266141-26.532283L151.554718 425.738357l293.316395-111.12389 459.545325-174.1002-51.19294 483.076251L825.924759 881.21297 626.928542 734.180242c-11.0558-7.738241-25.426089-3.317559-32.059159 9.947559-6.634094 13.267165-3.317559 30.955013 7.737218 38.694278l229.950205 170.250522c3.315512 2.212388 7.738241 4.421706 12.160971 4.421706 3.317559 0 7.738241-1.105171 9.949607-3.316536 6.634094-4.421706 12.163017-13.266142 12.163017-22.109553l85.123726-828.03891c3.316535-11.053754-0.001023-21.00336-6.634094-26.53126z" p-id="3691" fill="#302929"></path><path d="M831.616388 275.743158c10.56666-13.20679 14.69263-26.934442 4.123924-40.141232-10.564613-13.205766-27.735691-13.205766-38.298258 0L608.93268 438.750719l-134.564765 142.866848c-8.841366 11.0558-8.841366 28.744671 0 39.797402 4.423753 5.5279 9.950629 7.739265 16.5837 7.739264 5.5279 0 12.160971-2.211365 16.581653-7.739264l142.381802-151.656026L831.616388 275.743158z" p-id="3692" fill="#302929"></path></svg>