<?xml version="1.0" standalone="no"?><!DOCTYPE svg PUBLIC "-//W3C//DTD SVG 1.1//EN" "http://www.w3.org/Graphics/SVG/1.1/DTD/svg11.dtd"><svg t="1504752478767" class="icon" style="" viewBox="0 0 1024 1024" version="1.1" xmlns="http://www.w3.org/2000/svg" p-id="10278" xmlns:xlink="http://www.w3.org/1999/xlink" width="200" height="200"><defs><style type="text/css"></style></defs><path d="M859.264 978.368h-47.36V61.696h47.36c26.24 0 47.36 21.248 47.36 47.424v821.824c0 26.176-21.12 47.424-47.36 47.424z m-647.232-47.424v-47.36h78.912c52.288 0 94.72-42.496 94.72-94.784 0-52.352-42.432-94.784-94.72-94.784h-78.912v-79.168h78.912c52.288 0 94.72-42.432 94.72-94.784s-42.432-94.784-94.72-94.784h-78.912v-79.104h78.912c52.288 0 94.72-42.432 94.72-94.784s-42.432-94.784-94.72-94.784h-78.912V109.12c0-26.176 21.184-47.424 47.36-47.424h505.216v916.672H259.392c-26.176 0-47.36-21.248-47.36-47.424z m126.336-679.552c0 26.176-21.248 47.424-47.36 47.424H164.672c-26.112 0-47.296-21.248-47.296-47.424s21.184-47.424 47.296-47.424h126.336c26.112 0 47.36 21.248 47.36 47.424zM164.672 472.64h126.336c26.112 0 47.36 21.248 47.36 47.424s-21.248 47.36-47.36 47.36H164.672c-26.112 0-47.296-21.184-47.296-47.36s21.184-47.424 47.296-47.424z m0 268.672h126.336c26.112 0 47.36 21.248 47.36 47.424s-21.248 47.36-47.36 47.36H164.672c-26.112 0-47.296-21.184-47.296-47.36s21.184-47.424 47.296-47.424z" fill="#302929" p-id="10279"></path></svg>